#!OML:ASF E:\emotionWalksFemale\Project 1\Capture day 1\Session 1\Female1.ASF
:FULLY-SPECIFIED
:DEGREES
745
root 25.8544 15.3177 33.8011 -179.344 6.458 -176.488
lowerback 5.62767 1.80033 4.48664
upperback -5.18159 3.19579 1.58839
thorax -8.49138 1.43694 -1.25473
lowerneck -14.0654 -1.68298 -2.96107
upperneck 22.4658 -1.77803 3.8221
head 9.47043 -0.328866 1.65623
rclavicle 3.2551e-014 1.96797e-014
rhumerus 35.9919 19.5208 -34.2216
rradius 29.2875
rwrist 17.0913
rhand -9.98657 -42.1298
rfingers 7.12502
rthumb 15.9966 -431.489
lclavicle 3.2551e-014 1.96797e-014
lhumerus 27.2504 -9.40521 47.5134
lradius 28.6721
lwrist -28.896
lhand -14.2058 -47.7555
lfingers 7.12502
lthumb 11.9307 -18.1155
rfemur 26.5016 3.79692 29.1166
rtibia -1.90833e-014
rfoot -6.76412 -30.32
rtoes 4.16592
lfemur -29.4234 -33.5832 -5.30449
ltibia 26.4466
lfoot -47.1356 31.8642
ltoes 31.9073
746
root 25.824 15.3106 33.6882 -179.195 6.51312 -176.32
lowerback 5.50426 1.81324 4.49276
upperback -5.18005 3.19319 1.47905
thorax -8.41004 1.43204 -1.36751
lowerneck -13.964 -1.76371 -3.07193
upperneck 22.4323 -1.89342 3.94855
head 9.44655 -0.377703 1.7045
rclavicle -2.37796e-014 6.95746e-015
rhumerus 35.9091 19.4531 -34.2147
rradius 29.3345
rwrist 17.1353
rhand -10.1611 -42.0416
rfingers 7.12502
rthumb 15.8285 -431.415
lclavicle -2.37796e-014 6.95746e-015
lhumerus 27.3334 -9.24487 47.6877
lradius 28.547
lwrist -28.879
lhand -13.5992 -47.8923
lfingers 7.12502
lthumb 12.5155 -18.2871
rfemur 26.7367 3.78515 29.0391
rtibia 4.77083e-014
rfoot -6.43977 -30.189
rtoes 4.88812
lfemur -28.9319 -32.9557 -5.7241
ltibia 26.4767
lfoot -46.6653 31.169
ltoes 33.0789
747
root 25.7927 15.3061 33.5732 -178.957 6.60481 -176.127
lowerback 5.34984 1.82409 4.49209
upperback -5.2345 3.19569 1.38999
thorax -8.37304 1.43163 -1.45584
lowerneck -13.9645 -1.79557 -3.15281
upperneck 22.5453 -1.92975 4.03229
head 9.48952 -0.386621 1.74507
rclavicle -2.08475e-014 -2.5842e-015
rhumerus 35.8608 19.5999 -33.998
rradius 29.4731
rwrist 16.8315
rhand -10.2786 -42.0302
rfingers 7.12502
rthumb 15.7153 -431.412
lclavicle -2.08475e-014 -2.5842e-015
lhumerus 27.1458 -9.88765 47.1331
lradius 28.9565
lwrist -28.0914
lhand -13.0189 -47.9632
lfingers 7.12502
lthumb 13.075 -18.393
rfemur 26.8753 3.82919 28.9642
rtibia 5.40694e-014
rfoot -5.66209 -29.967
rtoes 4.36673
lfemur -28.7897 -32.872 -5.81196
ltibia 26.5521
lfoot -45.9343 33.3401
ltoes 28.455
748
root 25.7595 15.3014 33.4577 -178.799 6.66001 -175.854
lowerback 5.1106 1.82147 4.53514
upperback -5.16026 3.17195 1.36353
thorax -8.14934 1.42203 -1.49267
lowerneck -13.986 -1.81125 -3.22625
upperneck 22.5098 -1.94526 4.05611
head 9.48282 -0.400538 1.76287
rclavicle 3.81791e-014 -1.87852e-014
rhumerus 35.9538 19.605 -33.791
rradius 29.5694
rwrist 16.5221
rhand -10.2571 -42.0692
rfingers 7.12502
rthumb 15.7361 -431.449
lclavicle 3.81791e-014 -1.87852e-014
lhumerus 27.0844 -10.3026 46.7812
lradius 29.2023
lwrist -27.7912
lhand -13.0744 -48.2352
lfingers 7.12502
lthumb 13.0215 -18.6616
rfemur 27.0773 3.83036 28.9597
rtibia -4.45278e-014
rfoot -4.48963 -29.7359
rtoes 3.46514
lfemur -28.647 -33.2871 -5.69818
ltibia 26.6912
lfoot -46.2579 33.18
ltoes 30.5807
749
root 25.7254 15.3042 33.3377 -178.7 6.68435 -175.567
lowerback 4.83659 1.81722 4.60843
upperback -5.03989 3.13976 1.32387
thorax -7.85418 1.40724 -1.55663
lowerneck -13.9703 -1.82839 -3.18289
upperneck 22.3863 -1.96353 3.93556
head 9.4356 -0.426222 1.70877
rclavicle 6.77607e-014 2.65874e-014
rhumerus 36.0139 19.5138 -33.6974
rradius 29.5971
rwrist 16.5123
rhand -10.0854 -42.1352
rfingers 7.12502
rthumb 15.9014 -431.502
lclavicle 6.77607e-014 2.65874e-014
lhumerus 27.2465 -10.1551 46.9867
lradius 29.0397
lwrist -28.097
lhand -13.3084 -48.4497
lfingers 7.12502
lthumb 12.7959 -18.8618
rfemur 27.3146 3.79494 28.9672
rtibia -1.20861e-013
rfoot -3.14389 -29.5802
rtoes 2.44686
lfemur -28.4128 -33.8928 -5.60195
ltibia 26.9238
lfoot -46.8368 32.5414
ltoes 34.1993
750
root 25.6911 15.3122 33.2155 -178.557 6.68669 -175.281
lowerback 5.15526 1.80738 4.55247
upperback -5.33094 3.17381 1.32846
thorax -8.35877 1.41785 -1.54571
lowerneck -13.7338 -1.86729 -3.15949
upperneck 22.508 -1.97431 3.80342
head 9.43272 -0.434494 1.66116
rclavicle -1.98125e-014 -9.72181e-015
rhumerus 35.6416 19.9249 -33.5524
rradius 29.7127
rwrist 16.3884
rhand -9.82239 -42.2962
rfingers 7.12502
rthumb 16.1547 -431.643
lclavicle -1.98125e-014 -9.72181e-015
lhumerus 26.8895 -10.2573 47.5294
lradius 28.9845
lwrist -28.6085
lhand -13.6746 -48.3937
lfingers 7.12502
lthumb 12.4428 -18.7841
rfemur 27.5029 3.75128 28.9551
rtibia 3.18055e-015
rfoot -2.04946 -29.3413
rtoes 2.42578
lfemur -28.248 -34.3878 -5.51656
ltibia 27.1448
lfoot -47.0261 32.411
ltoes 36.0588
751
root 25.6577 15.3235 33.0949 -178.455 6.65244 -175.128
lowerback 5.09128 1.80995 4.4242
upperback -5.33494 3.15229 1.25085
thorax -8.32743 1.41177 -1.55073
lowerneck -13.7038 -1.88356 -3.09906
upperneck 22.4799 -2.00524 3.76983
head 9.41737 -0.448496 1.63514
rclavicle 1.88162e-014 -1.36664e-014
rhumerus 35.5039 19.8586 -33.6933
rradius 29.6767
rwrist 16.2679
rhand -9.9442 -42.6208
rfingers 7.12502
rthumb 16.0374 -431.977
lclavicle 1.88162e-014 -1.36664e-014
lhumerus 26.8395 -9.89594 48.1097
lradius 28.8892
lwrist -29.3561
lhand -13.9622 -48.1005
lfingers 7.12502
lthumb 12.1655 -18.4743
rfemur 25.8004 3.60602 28.8071
rtibia 3.83885
rfoot -3.03504 -28.722
rtoes 2.23801
lfemur -27.8989 -34.404 -5.76067
ltibia 27.1901
lfoot -46.0421 32.9509
ltoes 35.2747
752
root 25.624 15.3362 32.973 -178.423 6.68002 -175.226
lowerback 5.13086 1.80397 4.06476
upperback -5.33453 3.09217 1.10166
thorax -8.35981 1.39376 -1.50198
lowerneck -13.8218 -1.89356 -3.01994
upperneck 22.6407 -2.00104 3.6408
head 9.49367 -0.449354 1.57975
rclavicle 7.67806e-015 2.45499e-014
rhumerus 35.363 19.725 -34.056
rradius 29.5814
rwrist 16.3841
rhand -10.0918 -42.6579
rfingers 7.12502
rthumb 15.8952 -432.026
lclavicle 7.67806e-015 2.45499e-014
lhumerus 26.7627 -9.44469 48.6613
lradius 28.7448
lwrist -29.8252
lhand -14.1437 -47.6502
lfingers 7.12502
lthumb 11.9905 -18.0137
rfemur 24.3176 3.52119 28.3573
rtibia 7.27417
rfoot -3.58931 -28.2567
rtoes 2.16098
lfemur -27.3437 -34.4351 -6.32937
ltibia 27.0207
lfoot -43.9882 35.0166
ltoes 30.5543
753
root 25.5889 15.3492 32.8503 -178.413 6.75241 -175.487
lowerback 5.18947 1.81356 3.58162
upperback -5.34783 3.03848 0.905508
thorax -8.42061 1.38377 -1.43542
lowerneck -13.9043 -1.94386 -3.07381
upperneck 22.9229 -2.02274 3.56815
head 9.60951 -0.460958 1.56559
rclavicle 2.08972e-014 2.70347e-014
rhumerus 35.1728 19.6158 -34.3867
rradius 29.5115
rwrist 16.6186
rhand -9.95304 -42.2443
rfingers 7.12502
rthumb 16.0289 -431.601
lclavicle 2.08972e-014 2.70347e-014
lhumerus 26.6497 -9.26557 49.0822
lradius 28.6076
lwrist -30.1213
lhand -14.653 -47.5966
lfingers 7.12502
lthumb 11.4994 -17.932
rfemur 23.0418 3.49383 27.6722
rtibia 10.2193
rfoot -3.94996 -27.93
rtoes 4.74261
lfemur -26.7167 -34.6441 -7.02095
ltibia 26.6841
lfoot -42.6287 36.5699
ltoes 27.2228
754
root 25.5532 15.3697 32.7321 -178.479 6.72514 -175.692
lowerback 5.32471 1.81528 3.25486
upperback -5.32862 2.98113 0.637549
thorax -8.48058 1.35886 -1.53326
lowerneck -13.9572 -2.00658 -3.08918
upperneck 23.1829 -2.10594 3.6492
head 9.71585 -0.479094 1.59093
rclavicle -9.81499e-015 -8.54774e-015
rhumerus 34.8673 19.448 -34.8586
rradius 29.4462
rwrist 16.7476
rhand -10.026 -42.0103
rfingers 7.12502
rthumb 15.9587 -431.373
lclavicle -9.81499e-015 -8.54774e-015
lhumerus 26.5759 -9.51389 49.1281
lradius 28.6274
lwrist -30.1579
lhand -14.8845 -47.8648
lfingers 7.12502
lthumb 11.2761 -18.1879
rfemur 21.8257 2.88296 26.8102
rtibia 13.0628
rfoot -3.55518 -27.0973
rtoes 6.7017
lfemur -25.8709 -34.225 -7.88072
ltibia 26.2364
lfoot -41.9329 35.968
ltoes 29.17
755
root 25.5177 15.3948 32.6167 -178.553 6.6537 -175.781
lowerback 5.58009 1.81383 2.93393
upperback -5.37308 2.93898 0.449305
thorax -8.68477 1.34336 -1.55937
lowerneck -13.9615 -2.08741 -3.03352
upperneck 23.4551 -2.2017 3.61799
head 9.81613 -0.507863 1.56396
rclavicle -2.5842e-014 -2.78299e-015
rhumerus 34.4324 19.1507 -35.5965
rradius 29.3044
rwrist 17.2096
rhand -10.0814 -41.9184
rfingers 7.12502
rthumb 15.9053 -431.285
lclavicle -2.5842e-014 -2.78299e-015
lhumerus 26.3483 -10.1153 48.9879
lradius 28.8637
lwrist -29.6162
lhand -14.5863 -47.8251
lfingers 7.12502
lthumb 11.5637 -18.1641
rfemur 20.6704 2.16951 26.0627
rtibia 15.7625
rfoot -2.75439 -26.1528
rtoes 6.6405
lfemur -24.9276 -33.3574 -8.72978
ltibia 25.7679
lfoot -41.8268 33.7414
ltoes 34.5447
756
root 25.4832 15.4206 32.5028 -178.52 6.63485 -175.796
lowerback 5.48077 1.84212 2.44549
upperback -5.30875 2.92076 0.465771
thorax -8.57897 1.36586 -1.26106
lowerneck -13.952 -2.21792 -3.1509
upperneck 23.6306 -2.29197 3.40468
head 9.87974 -0.578046 1.50059
rclavicle -1.66979e-014 -1.11319e-014
rhumerus 34.1786 18.2581 -36.6656
rradius 28.9613
rwrist 18.5181
rhand -9.8484 -41.7506
rfingers 7.12502
rthumb 16.1296 -431.099
lclavicle -1.66979e-014 -1.11319e-014
lhumerus 26.3028 -10.5491 49.1118
lradius 28.7821
lwrist -29.0943
lhand -14.7131 -48.1084
lfingers 7.12502
lthumb 11.4414 -18.4406
rfemur 19.5194 1.57738 25.4307
rtibia 18.1943
rfoot -1.96939 -25.1832
rtoes 4.98481
lfemur -24.2227 -33.03 -9.21881
ltibia 25.4139
lfoot -42.4656 31.5263
ltoes 39.6508
757
root 25.4496 15.4504 32.3896 -178.503 6.69451 -175.703
lowerback 5.47393 1.84968 2.33363
upperback -5.27203 2.90262 0.334897
thorax -8.53333 1.35763 -1.33268
lowerneck -13.9581 -2.32293 -3.18707
upperneck 23.8417 -2.39438 3.32228
head 9.95999 -0.628894 1.46842
rclavicle 5.29264e-014 6.36111e-015
rhumerus 34.116 19.4532 -35.3776
rradius 29.5951
rwrist 16.5923
rhand -10.0555 -42.4705
rfingers 7.12502
rthumb 15.9302 -431.835
lclavicle 5.29264e-014 6.36111e-015
lhumerus 26.2571 -11.0168 48.9508
lradius 28.6577
lwrist -28.8343
lhand -15.0584 -48.5346
lfingers 7.12502
lthumb 11.1084 -18.8486
rfemur 18.4215 0.990542 24.8901
rtibia 20.521
rfoot -1.19788 -24.2044
rtoes 2.27097
lfemur -23.5571 -32.911 -9.52622
ltibia 25.1957
lfoot -42.4482 30.2784
ltoes 42.0815
758
root 25.4168 15.4807 32.2733 -178.597 6.84062 -175.533
lowerback 5.54519 1.88035 2.2526
upperback -5.21443 2.92251 0.251523
thorax -8.51082 1.36668 -1.37887
lowerneck -13.9404 -2.39133 -3.21774
upperneck 24.0309 -2.45872 3.29024
head 10.0271 -0.65588 1.45764
rclavicle 5.64548e-014 5.1684e-015
rhumerus 33.9224 19.8173 -35.2087
rradius 29.8044
rwrist 15.9487
rhand -10.4153 -42.7307
rfingers 7.12502
rthumb 15.5837 -432.123
lclavicle 5.64548e-014 5.1684e-015
lhumerus 25.8967 -10.1718 49.918
lradius 28.7228
lwrist -30.3402
lhand -14.596 -48.5095
lfingers 7.12502
lthumb 11.5543 -18.848
rfemur 17.4772 0.354307 24.3757
rtibia 22.8689
rfoot -0.550339 -23.1747
rtoes 2.14185
lfemur -22.6986 -32.4967 -9.9474
ltibia 25.0508
lfoot -41.4414 29.9167
ltoes 42.6342
